<?xml version="1.0" standalone="no"?>
<!DOCTYPE svg PUBLIC "-//W3C//DTD SVG 20010904//EN"
 "http://www.w3.org/TR/2001/REC-SVG-20010904/DTD/svg10.dtd">
<svg version="1.0" xmlns="http://www.w3.org/2000/svg"
 width="260.000000pt" height="260.000000pt" viewBox="0 0 260.000000 260.000000"
 preserveAspectRatio="xMidYMid meet">
<metadata>
Created by potrace 1.11, written by Peter Selinger 2001-2013
</metadata>
<g transform="translate(0.000000,260.000000) scale(0.100000,-0.100000)"
fill="#000000" stroke="none">
<path d="M1518 2455 c-2 -1 -40 -5 -86 -8 -45 -3 -86 -8 -90 -11 -4 -2 -24 -7
-46 -10 -100 -16 -272 -107 -405 -213 -256 -204 -436 -499 -521 -853 -33 -136
-34 -370 -1 -520 105 -484 433 -725 886 -650 180 29 389 131 568 277 148 121
275 312 237 358 -22 27 -38 16 -101 -67 -112 -150 -211 -232 -369 -307 -170
-81 -393 -97 -549 -40 -227 83 -336 299 -326 644 2 72 6 140 9 152 2 11 8 43
12 70 10 71 78 272 121 361 127 262 309 470 503 575 94 51 155 69 244 73 86 3
125 -8 184 -52 l34 -26 -64 -32 c-184 -91 -322 -257 -354 -426 -2 -14 -7 -32
-10 -40 -10 -28 -4 -165 10 -217 40 -147 132 -243 236 -245 115 -1 292 147
383 319 90 172 119 315 93 462 l-8 44 118 -7 c66 -4 135 -9 154 -11 64 -8 114
-15 168 -24 l52 -8 0 118 0 119 -32 1 c-18 0 -44 2 -58 4 -62 10 -343 11 -418
2 -77 -8 -85 -8 -102 10 -33 36 -104 90 -145 111 -50 25 -163 53 -235 59 -30
2 -63 6 -72 7 -9 2 -18 3 -20 1z m365 -427 c-5 -7 -15 -39 -22 -71 -28 -131
-142 -306 -247 -378 -44 -30 -44 -30 -44 -7 0 49 40 211 59 244 15 24 17 34 7
34 -19 0 -41 -28 -81 -104 -19 -37 -35 -62 -35 -54 0 7 16 45 36 83 57 111
135 182 263 236 77 33 76 33 64 17z"/>
</g>
</svg>
